.
..............................Site Info...........................

 -   http://www.scenetime.com  *_*   

SceneTime is going to Close sign up on march/1, hurry up! get in before the doors are closed.

     We care to share . Join us on  http://www.scenetime.com 

    Be the first to get new release at  http://www.scenetime.com

        Seed back for speed


...................................NFO:.................................................[align=center]
        [/align]

[size=3][color=#009999]



   Best Laid Plans 2012 DVDRIP XVID AC3  - Xtreme Encode



[/color][/size]


[size=3]
[color=#CC9933]General


Complete name                            : Best Laid Plans 2012 DVDRIP XVID AC3  - Xtreme Encode.avi
Format                                   : AVI
Format/Info                              : Audio Video Interleave
File size                                : 1.37 GiB
Duration                                 : 1h 43mn
Overall bit rate                         : 1 897 Kbps[/color][/size]




[size=2][color=#669900]
Video


ID                                       : 0
Format                                   : MPEG-4 Visual
Format profile                           : Advanced Simple@L5
Format settings, BVOP                    : 1
Format settings, QPel                    : No
Format settings, GMC                     : No warppoints
Format settings, Matrix                  : Default (H.263)
Codec ID                                 : XVID
Codec ID/Hint                            : XviD
Duration                                 : 1h 43mn
Bit rate                                 : 1 505 Kbps
Width                                    : 720 pixels
Height                                   : 384 pixels
Display aspect ratio                     : 1.875
Frame rate                               : 25.000 fps
Color space                              : YUV
Chroma subsampling                       : 4:2:0
Bit depth                                : 8 bits
Scan type                                : Progressive
Compression mode                         : Lossy
Bits/(Pixel*Frame)                       : 0.218
Stream size                              : 1.09 GiB (79%)[/color][/size]




[size=2][color=#009900]Audio


ID                                       : 1
Format                                   : AC-3
Format/Info                              : Audio Coding 3
Mode extension                           : CM (complete main)
Codec ID                                 : 2000
Duration                                 : 1h 43mn
Bit rate mode                            : Constant
Bit rate                                 : 384 Kbps
Channel(s)                               : 6 channels
Channel positions                        : Front: L C R, Side: L R, LFE
Sampling rate                            : 48.0 KHz
Bit depth                                : 16 bits
Compression mode                         : Lossy
Stream size                              : 284 MiB (20%)
Alignment                                : Aligned on interleaves
Interleave, duration                     : 64 ms (1.60 video frames)
Interleave, preload duration             : 384 ms[/color][/size]





[size=3][color=#6699FF]
SOURCE

Video : DVDR Legend-Rg
Audio : DVDR Legend-Rg



JUST A LITTLE MESS WITH THIS ADDES BIT OF CONTRAS 
RESIZED BIT TWEAKED BIT SHARPEN in 
SAT HUE and few othere things :)[/color][/size]




[size=3][color=#0099CC]PLOT

David Blair directs this powerful British Drama, loosely inspired 
by John Steinbeck's novel 'Of Mice and Men'... [/color][/size]



[size=3][color=#CC6600]Genres: Drama 


Director: David Blair

Writers: Chris Green (screenplay), Jeremy Sheldon (additional material)

Stars: Adewale Akinnuoye-Agbaje, Stephen Graham and David O'Hara [/color][/size]


[size=3][color=#0033FF]IMDB: http://www.imdb.com/title/tt1764198/[/color][/size]



[size=3][color=#996600]HOPE U ALL LIKE THIS IF SO PLS REP
   
IF U GOT ANYTHING TO OFFER JUST DROP ONE AT: Xtreme-Encode@hushmail.me  :)[/color][/size]



[size=3][color=#CC0000]
SCREENS:





[/color][/size]


[size=3][b][font=Times New Roman][color=#3366CC]
      GREETS:

IMAGiNE / ELEKTRI4KA / FLAWL3SS / DTRG
ViSiON / CRYS / BMB / MiSTERE / 26K
AMB / FYA / Jamie111 / VISUALiSE  
ILLUMINATI / Rx / REFiLL / BHRG
TO MY FRIENDS  AND ALL OTHER GROUPS  :)[/color][/font][/b][/size]